<svg width="107" height="107" viewBox="0 0 107 107" fill="none" xmlns="http://www.w3.org/2000/svg">
<circle cx="53.5" cy="53.5" r="52" stroke="#FAFAFA" stroke-width="3"/>
<path d="M33.7895 74.25C32.5561 74.25 31.6728 73.9833 31.1395 73.45C30.6061 72.8833 30.3395 71.8333 30.3395 70.3C30.3395 69.2667 30.4395 67.95 30.6395 66.35C30.8728 64.7167 31.2395 62.4833 31.7395 59.65C32.6061 54.4167 33.2895 49.8833 33.7895 46.05C34.0895 43.65 34.2395 41.65 34.2395 40.05C34.2395 38.55 33.6895 37.8 32.5895 37.8C31.7228 37.8 30.6728 38.25 29.4395 39.15C28.2395 40.0167 26.9061 41.4167 25.4395 43.35C24.9728 43.9833 24.4561 44.3 23.8895 44.3C23.4228 44.3 23.0061 44.0833 22.6395 43.65C22.3061 43.1833 22.1395 42.6667 22.1395 42.1C22.1395 41.5667 22.2395 41.0333 22.4395 40.5C22.6728 39.9333 23.0395 39.3 23.5395 38.6C25.1395 36.3667 26.9228 34.65 28.8895 33.45C30.8561 32.2167 32.8228 31.6 34.7895 31.6C36.6228 31.6 38.0228 32.1833 38.9895 33.35C39.9895 34.5167 40.4895 36.2167 40.4895 38.45C40.4895 39.35 40.4061 40.4167 40.2395 41.65C40.0728 42.85 39.9228 43.8333 39.7895 44.6C39.6561 45.3667 39.5561 45.9 39.4895 46.2C41.3895 40.7667 43.5228 36.9833 45.8895 34.85C48.2561 32.6833 50.8561 31.6 53.6895 31.6C55.8561 31.6 57.5561 32.3667 58.7895 33.9C60.0561 35.4333 60.6895 37.6 60.6895 40.4C60.6895 41.5 60.5395 42.8667 60.2395 44.5C61.9061 39.9 63.8561 36.6 66.0895 34.6C68.3228 32.6 70.8895 31.6 73.7895 31.6C76.1228 31.6 77.9061 32.35 79.1395 33.85C80.4061 35.35 81.0395 37.45 81.0395 40.15C81.0395 41.6167 80.8228 43.4 80.3895 45.5L77.3395 59.8C77.0061 61.4667 76.8395 62.9 76.8395 64.1C76.8395 65.5 77.1561 66.55 77.7895 67.25C78.4561 67.95 79.3728 68.3 80.5395 68.3C81.6395 68.3 82.7061 67.9333 83.7395 67.2C84.8061 66.4667 86.0561 65.25 87.4895 63.55C87.8895 63.0833 88.3395 62.85 88.8395 62.85C89.2728 62.85 89.6061 63.05 89.8395 63.45C90.1061 63.85 90.2395 64.4 90.2395 65.1C90.2395 66.4 89.9228 67.4333 89.2895 68.2C87.5561 70.3 85.8395 71.8333 84.1395 72.8C82.4395 73.7667 80.6561 74.25 78.7895 74.25C75.9561 74.25 73.7395 73.4167 72.1395 71.75C70.5395 70.05 69.7395 67.7833 69.7395 64.95C69.7395 62.9833 70.1395 60.1333 70.9395 56.4L72.9395 47.25C73.0061 46.95 73.1228 46.4167 73.2895 45.65C73.4561 44.8833 73.5895 44.1667 73.6895 43.5C73.7895 42.8 73.8395 42.1167 73.8395 41.45C73.8395 40.2833 73.6061 39.4167 73.1395 38.85C72.7061 38.25 72.0728 37.95 71.2395 37.95C69.6728 37.95 68.0228 38.9667 66.2895 41C64.5895 43 62.9561 46.3333 61.3895 51C59.8561 55.6667 58.6061 61.7333 57.6395 69.2C57.4061 71.2 56.9895 72.55 56.3895 73.25C55.8228 73.9167 54.8895 74.25 53.5895 74.25C52.4561 74.25 51.6228 73.9833 51.0895 73.45C50.5895 72.9167 50.3395 71.9167 50.3395 70.45C50.3395 69.0833 50.5228 67.3 50.8895 65.1C51.2561 62.8667 51.7228 60.25 52.2895 57.25C53.8228 49.1833 54.5895 43.9833 54.5895 41.65C54.5895 40.3833 54.3395 39.45 53.8395 38.85C53.3728 38.25 52.6561 37.95 51.6895 37.95C50.0561 37.95 48.3728 38.8833 46.6395 40.75C44.9061 42.5833 43.2061 45.8667 41.5395 50.6C39.9061 55.3 38.5395 61.6667 37.4395 69.7C37.2061 71.4 36.8561 72.5833 36.3895 73.25C35.9561 73.9167 35.0895 74.25 33.7895 74.25Z" fill="#FAFAFA"/>
</svg>
