<svg width="107" height="121" viewBox="0 0 107 121" fill="none" xmlns="http://www.w3.org/2000/svg">
<circle cx="53.5" cy="60.5" r="52" stroke="#FAFAFA" stroke-width="3"/>
<path d="M28.0174 82.25C26.7507 82.25 25.8507 81.5833 25.3174 80.25C24.8174 78.9167 24.5674 76.7833 24.5674 73.85C24.5674 69.5167 25.184 65.4 26.4174 61.5C26.7174 60.5333 27.2007 59.8333 27.8674 59.4C28.5674 58.9333 29.534 58.7 30.7674 58.7C31.434 58.7 31.9007 58.7833 32.1674 58.95C32.434 59.1167 32.5674 59.4333 32.5674 59.9C32.5674 60.4333 32.3174 61.6333 31.8174 63.5C31.484 64.8333 31.2174 66 31.0174 67C30.8174 67.9667 30.6507 69.1833 30.5174 70.65C31.4174 68.05 32.484 65.85 33.7174 64.05C34.9841 62.25 36.2674 60.9167 37.5674 60.05C38.9007 59.15 40.1507 58.7 41.3174 58.7C42.4841 58.7 43.3007 58.9667 43.7674 59.5C44.2674 60.0333 44.5174 60.85 44.5174 61.95C44.5174 63.0167 44.2007 64.95 43.5674 67.75C43.3007 68.95 43.1174 69.85 43.0174 70.45C44.6841 66.35 46.5341 63.3667 48.5674 61.5C50.6007 59.6333 52.5007 58.7 54.2674 58.7C56.4341 58.7 57.5174 59.7833 57.5174 61.95C57.5174 63.25 57.1507 65.6 56.4174 69C55.7841 71.9 55.4674 73.8167 55.4674 74.75C55.4674 76.0833 55.9507 76.75 56.9174 76.75C57.5841 76.75 58.3674 76.35 59.2674 75.55C60.2007 74.7167 61.4341 73.3833 62.9674 71.55C63.3674 71.0833 63.8174 70.85 64.3174 70.85C64.7507 70.85 65.0841 71.05 65.3174 71.45C65.5841 71.85 65.7174 72.4 65.7174 73.1C65.7174 74.4333 65.4007 75.4667 64.7674 76.2C63.3341 77.9667 61.7841 79.4167 60.1174 80.55C58.4841 81.6833 56.6174 82.25 54.5174 82.25C52.8174 82.25 51.5341 81.7667 50.6674 80.8C49.8007 79.8 49.3674 78.3667 49.3674 76.5C49.3674 75.5667 49.6007 73.9 50.0674 71.5C50.5007 69.4 50.7174 67.95 50.7174 67.15C50.7174 66.6167 50.5341 66.35 50.1674 66.35C49.7341 66.35 49.1174 66.9167 48.3174 68.05C47.5174 69.15 46.7174 70.6167 45.9174 72.45C45.1174 74.2833 44.4674 76.2167 43.9674 78.25C43.6007 79.85 43.1674 80.9167 42.6674 81.45C42.2007 81.9833 41.4341 82.25 40.3674 82.25C39.2674 82.25 38.434 81.7333 37.8674 80.7C37.3341 79.6333 37.0674 78.35 37.0674 76.85C37.0674 75.5833 37.234 73.75 37.5674 71.35C37.8341 69.2167 37.9674 67.8167 37.9674 67.15C37.9674 66.6167 37.7841 66.35 37.4174 66.35C36.9174 66.35 36.2841 66.95 35.5174 68.15C34.7507 69.35 34.0007 70.8833 33.2674 72.75C32.5674 74.6167 32.0007 76.45 31.5674 78.25C31.2007 79.8167 30.7674 80.8833 30.2674 81.45C29.8007 81.9833 29.0507 82.25 28.0174 82.25ZM79.8744 70.85C80.2411 73.5833 80.7744 76.2833 81.4744 78.95C81.6077 79.3833 81.6744 79.8333 81.6744 80.3C81.6744 81.8 80.7577 82.55 78.9244 82.55C77.8911 82.55 77.0911 82.2667 76.5244 81.7C75.9911 81.1333 75.4911 80.0667 75.0244 78.5L74.9744 78.3C73.7077 79.8667 72.5577 80.9167 71.5244 81.45C70.5244 81.9833 69.3577 82.25 68.0244 82.25C65.9911 82.25 64.3077 81.5 62.9744 80C61.6744 78.4667 61.0244 76.4833 61.0244 74.05C61.0244 71.3833 61.5911 68.9167 62.7244 66.65C63.8577 64.3833 65.4077 62.5333 67.3744 61.1C69.3411 59.6333 71.5411 58.75 73.9744 58.45C74.6077 52.15 75.8077 46.6667 77.5744 42C79.3744 37.3333 81.7577 35 84.7244 35C86.1577 35 87.3411 35.65 88.2744 36.95C89.2411 38.25 89.7244 40.2167 89.7244 42.85C89.7244 46.5167 88.8244 50.8 87.0244 55.7C85.2244 60.6 82.8411 65.65 79.8744 70.85ZM84.1744 39.9C83.2077 39.9 82.2911 42.3667 81.4244 47.3C80.5911 52.2333 80.0244 57.6 79.7244 63.4C83.4244 55.4 85.2744 48.9 85.2744 43.9C85.2744 42.6333 85.1577 41.65 84.9244 40.95C84.7244 40.25 84.4744 39.9 84.1744 39.9ZM69.7744 77.2C70.4411 77.2 71.0744 76.95 71.6744 76.45C72.3077 75.95 73.1077 74.9833 74.0744 73.55C73.7411 71.1167 73.5744 68.6 73.5744 66C73.5744 64.9667 73.5911 64.1667 73.6244 63.6C71.7911 64.1333 70.2744 65.35 69.0744 67.25C67.8744 69.15 67.2744 71.25 67.2744 73.55C67.2744 75.9833 68.1077 77.2 69.7744 77.2Z" fill="#FAFAFA"/>
</svg>
